<svg xmlns="http://www.w3.org/2000/svg" viewBox="0 0 48 48" width="128" height="128">
  <defs>
    <style>
      .cls-1{fill:#7e7a90} /* Changed color here */
    </style>
  </defs>
  <g id="Layer_2" data-name="Layer 2">
    <g id="layer_1-2" data-name="layer 1">
      <path class="cls-1" d="M24 48a17 17 0 1 1 17-17 17 17 0 0 1-17 17zm0-32a15 15 0 1 0 15 15 15 15 0 0 0-15-15z"/>
      <path class="cls-1" d="M24 48c-5.61 0-10-7.47-10-17s4.39-17 10-17 10 7.47 10 17-4.39 17-10 17zm0-32c-4.34 0-8 6.87-8 15s3.66 15 8 15 8-6.87 8-15-3.66-15-8-15z"/>
      <path class="cls-1" d="M9 25h30v2H9zm0 10h30v2H9z"/>
      <path class="cls-1" d="M23 15h2v32h-2z"/>
      <path class="cls-1" d="M47 42H36.49v-2H46V2H2v38h9.51v2H1a1 1 0 0 1-1-1V1a1 1 0 0 1 1-1h46a1 1 0 0 1 1 1v40a1 1 0 0 1-1 1z"/>
      <path class="cls-1" d="M4 4h2v2H4zm4 0h2v2H8zm4 0h2v2h-2zM1 8h46v2H1z"/>
    </g>
  </g>
</svg>